# File created by Blade
# Date/Time:  Wed Jan 21 16:27:40 2015
# Frame Rate: 120.000 fps
#------------------------------------------------------
:FULLY-SPECIFIED
:DEGREES
1367
root 19.490239 4.428574 -9.841455 -211.855025 1.821263 -201.273113
Spine 67.858809 -3.371516 -15.592532
Head -2.053810 5.100245 2.620733
LeftShoulder 8.533505 -37.777801 0.981092
LeftArm 61.455580 44.664013 -41.237925
LeftForeArm 26.518098 -0.000000 19.940342
LeftHand -4.789147 -0.000000 -7.697828
LeftHandThumb1 -26.253704 0.000000 33.147579
RightShoulder 5.148588 -15.083847 -9.767163
RightArm 10.980722 -2.214303 98.079338
RightForeArm -55.400387 -0.000000 51.550547
RightHand 6.597984 -0.000000 -73.647682
RightHandThumb1 -24.326973 -0.000000 -32.862282
LeftUpLeg -11.611670 -3.739816 55.290790
LeftLeg 34.089523 -0.000000 -0.000000
LeftFoot 15.247622 25.355655 4.300545
LeftToeBase 27.562035 -0.000000 -0.000000
RightUpLeg -65.346945 -38.270158 -34.264062
RightLeg 11.839396 -0.000000 -0.000000
RightFoot 39.177837 -26.780356 -13.835492
RightToeBase 25.987022 -0.000000 -0.000000
1368
root 19.480108 4.464017 -9.764159 -212.170691 1.837894 -201.528184
Spine 67.408170 -3.014471 -15.664996
Head -1.721611 5.140288 1.692783
LeftShoulder 8.734823 -37.726894 0.922684
LeftArm 60.547348 44.910480 -42.240306
LeftForeArm 27.055174 -0.000000 19.417791
LeftHand -4.602091 -0.000000 -6.474654
LeftHandThumb1 -26.253704 0.000000 33.147579
RightShoulder 5.343102 -15.112333 -9.904000
RightArm 11.059248 -2.418206 98.062694
RightForeArm -55.516866 -0.000000 51.314799
RightHand 5.717946 0.000000 -73.173369
RightHandThumb1 -24.326973 -0.000000 -32.862282
LeftUpLeg -11.439623 -3.667872 54.963458
LeftLeg 34.103387 -0.000000 -0.000000
LeftFoot 15.218286 25.514283 4.349840
LeftToeBase 27.159430 -0.000000 -0.000000
RightUpLeg -65.525881 -37.803386 -34.262144
RightLeg 12.378461 -0.000000 -0.000000
RightFoot 38.922137 -27.136055 -13.801797
RightToeBase 25.531520 -0.000000 -0.000000
1369
root 19.462713 4.493860 -9.681933 -212.363611 1.791351 -201.863550
Spine 66.793708 -2.639074 -15.715285
Head -1.294526 5.075311 0.825067
LeftShoulder 9.010535 -37.804357 0.874790
LeftArm 60.050690 45.522552 -42.604198
LeftForeArm 27.100668 -0.000000 18.913861
LeftHand -4.347094 0.000000 -5.516585
LeftHandThumb1 -26.253704 0.000000 33.147579
RightShoulder 5.385133 -15.001092 -9.815425
RightArm 10.916234 -2.391453 98.050954
RightForeArm -55.672165 -0.000000 51.177874
RightHand 4.911379 -0.000000 -72.974369
RightHandThumb1 -24.326973 -0.000000 -32.862282
LeftUpLeg -11.462990 -3.381027 54.540645
LeftLeg 34.321091 -0.000000 -0.000000
LeftFoot 15.156560 25.528371 4.248261
LeftToeBase 26.478583 -0.000000 -0.000000
RightUpLeg -65.572433 -37.253564 -34.667570
RightLeg 12.883684 -0.000000 -0.000000
RightFoot 38.727419 -27.293055 -13.348347
RightToeBase 25.515973 -0.000000 -0.000000
1370
root 19.441943 4.522061 -9.597908 -212.506567 1.657434 -202.197041
Spine 66.167585 -2.336964 -15.800957
Head -0.951117 4.983509 -0.066085
LeftShoulder 9.221466 -38.017871 0.891226
LeftArm 59.728766 46.393090 -42.677548
LeftForeArm 26.904839 -0.000000 18.429852
LeftHand -4.126913 0.000000 -4.385061
LeftHandThumb1 -26.253704 0.000000 33.147579
RightShoulder 5.518074 -15.035314 -9.651742
RightArm 10.789255 -2.061545 98.072349
RightForeArm -55.954766 -0.000000 51.245828
RightHand 4.368489 -0.000000 -72.709829
RightHandThumb1 -24.326973 -0.000000 -32.862282
LeftUpLeg -11.616993 -3.012902 54.086828
LeftLeg 34.571686 -0.000000 -0.000000
LeftFoot 15.081534 25.552499 3.994931
LeftToeBase 25.932412 -0.000000 -0.000000
RightUpLeg -65.470520 -36.720374 -35.303387
RightLeg 13.330574 -0.000000 -0.000000
RightFoot 38.547051 -27.178741 -12.677008
RightToeBase 25.745617 -0.000000 -0.000000
1371
root 19.418933 4.551372 -9.508680 -212.663157 1.444253 -202.463510
Spine 65.650748 -2.136358 -15.879567
Head -0.712520 5.026673 -0.846351
LeftShoulder 9.307803 -38.058575 0.987659
LeftArm 60.105397 47.235426 -41.993387
LeftForeArm 25.979287 -0.000000 17.938749
LeftHand -3.760913 0.000000 -3.575947
LeftHandThumb1 -26.253704 0.000000 33.147579
RightShoulder 5.478688 -14.999318 -9.460800
RightArm 10.701804 -1.779992 98.094883
RightForeArm -56.202226 -0.000000 51.242231
RightHand 4.364143 -0.000000 -72.174747
RightHandThumb1 -24.326973 -0.000000 -32.862282
LeftUpLeg -11.874638 -2.804030 53.641074
LeftLeg 34.894141 -0.000000 -0.000000
LeftFoot 15.075390 25.491338 3.739144
LeftToeBase 25.186985 -0.000000 -0.000000
RightUpLeg -65.123722 -36.185703 -36.112436
RightLeg 13.625883 -0.000000 -0.000000
RightFoot 38.471434 -27.109236 -12.046488
RightToeBase 25.977453 -0.000000 -0.000000
1372
root 19.387782 4.577331 -9.420836 -212.762501 1.147215 -202.666661
Spine 65.095434 -2.097834 -15.949499
Head -0.459780 4.984493 -1.678902
LeftShoulder 9.440299 -38.115522 1.014611
LeftArm 60.334464 48.105795 -41.276559
LeftForeArm 24.938231 -0.000000 17.673459
LeftHand -3.492724 -0.000000 -2.879732
LeftHandThumb1 -26.253704 0.000000 33.147579
RightShoulder 5.404275 -15.041177 -9.298158
RightArm 10.690029 -1.568145 98.079762
RightForeArm -56.414677 0.000000 51.190413
RightHand 4.248073 -0.000000 -71.687391
RightHandThumb1 -24.326973 -0.000000 -32.862282
LeftUpLeg -12.290825 -2.583475 53.216491
LeftLeg 35.290805 -0.000000 -0.000000
LeftFoot 15.123721 25.251110 3.599798
LeftToeBase 25.288573 -0.000000 -0.000000
RightUpLeg -64.710647 -35.806987 -36.914865
RightLeg 13.813032 -0.000000 -0.000000
RightFoot 38.358715 -26.852728 -11.504224
RightToeBase 26.207015 -0.000000 -0.000000
1373
root 19.354054 4.598384 -9.337719 -212.880363 0.839054 -202.791301
Spine 64.608751 -2.165852 -16.008609
Head -0.341392 5.094464 -2.422458
LeftShoulder 9.523830 -38.100607 1.066253
LeftArm 60.464977 48.840148 -40.605444
LeftForeArm 24.120956 0.000000 17.606966
LeftHand -3.110398 -0.000000 -2.440474
LeftHandThumb1 -26.253704 0.000000 33.147579
RightShoulder 5.327713 -15.050750 -9.193692
RightArm 10.629170 -1.312044 98.093122
RightForeArm -56.765641 -0.000000 51.298740
RightHand 4.150872 -0.000000 -70.880189
RightHandThumb1 -24.326973 -0.000000 -32.862282
LeftUpLeg -12.749496 -2.322870 52.870663
LeftLeg 35.674064 -0.000000 -0.000000
LeftFoot 15.240965 24.984382 3.441424
LeftToeBase 25.214345 -0.000000 -0.000000
RightUpLeg -64.309376 -35.557162 -37.470889
RightLeg 13.826314 -0.000000 -0.000000
RightFoot 38.216933 -26.691857 -11.194276
RightToeBase 26.659558 -0.000000 -0.000000
1374
root 19.317592 4.616404 -9.256373 -212.999080 0.562556 -202.886168
Spine 64.161725 -2.276103 -16.079179
Head -0.376242 5.284724 -3.150512
LeftShoulder 9.469117 -37.835579 1.086547
LeftArm 60.669761 49.277458 -39.842102
LeftForeArm 23.552292 0.000000 17.826208
LeftHand -3.003036 -0.000000 -2.050744
LeftHandThumb1 -26.253704 0.000000 33.147579
RightShoulder 5.281559 -15.012323 -9.165630
RightArm 10.537679 -1.124262 98.090430
RightForeArm -56.794340 -0.000000 51.452176
RightHand 4.366777 -0.000000 -69.856909
RightHandThumb1 -24.326973 -0.000000 -32.862282
LeftUpLeg -13.182474 -2.089649 52.560840
LeftLeg 36.044299 -0.000000 -0.000000
LeftFoot 15.290986 24.738830 3.359694
LeftToeBase 25.364264 -0.000000 -0.000000
RightUpLeg -63.994762 -35.426586 -37.761723
RightLeg 13.689464 -0.000000 -0.000000
RightFoot 38.223112 -26.499386 -11.077834
RightToeBase 26.586911 -0.000000 -0.000000
1375
root 19.281870 4.626948 -9.176642 -213.075195 0.339091 -202.955634
Spine 63.671547 -2.413804 -16.180566
Head -0.469890 5.522198 -3.725886
LeftShoulder 9.408271 -37.623535 1.044932
LeftArm 60.280744 49.572456 -39.633112
LeftForeArm 23.815676 -0.000000 18.217722
LeftHand -2.967151 -0.000000 -1.331513
LeftHandThumb1 -26.253704 0.000000 33.147579
RightShoulder 5.313277 -15.032574 -9.147818
RightArm 10.455927 -1.035306 98.045760
RightForeArm -56.967209 -0.000000 51.774877
RightHand 4.061835 -0.000000 -68.723323
RightHandThumb1 -24.326973 -0.000000 -32.862282
LeftUpLeg -13.595921 -1.797258 52.311611
LeftLeg 36.379588 -0.000000 -0.000000
LeftFoot 15.264995 24.507742 3.277632
LeftToeBase 25.336717 -0.000000 -0.000000
RightUpLeg -63.755493 -35.373231 -37.863339
RightLeg 13.422081 -0.000000 -0.000000
RightFoot 38.171812 -26.262461 -11.143022
RightToeBase 26.724955 -0.000000 -0.000000
1376
root 19.244062 4.633896 -9.099603 -213.188644 0.144819 -202.975219
Spine 63.281427 -2.560653 -16.220995
Head -0.746512 5.800562 -4.196311
LeftShoulder 9.309506 -37.272078 1.043106
LeftArm 59.749824 49.594899 -39.654067
LeftForeArm 24.620799 -0.000000 18.727988
LeftHand -3.133742 -0.000000 -0.549670
LeftHandThumb1 -26.253704 0.000000 33.147579
RightShoulder 5.295706 -15.087049 -9.186739
RightArm 10.433007 -1.119270 97.984224
RightForeArm -57.026191 -0.000000 52.227481
RightHand 3.304575 -0.000000 -67.498338
RightHandThumb1 -24.326973 -0.000000 -32.862282
LeftUpLeg -13.969844 -1.582884 52.123099
LeftLeg 36.689513 -0.000000 -0.000000
LeftFoot 15.214491 24.159508 3.263439
LeftToeBase 24.770056 -0.000000 -0.000000
RightUpLeg -63.568423 -35.441392 -37.669985
RightLeg 13.010435 -0.000000 -0.000000
RightFoot 38.162611 -26.066502 -11.405942
RightToeBase 26.833072 -0.000000 -0.000000
1377
root 19.206328 4.635667 -9.024244 -213.327524 -0.028223 -202.985016
Spine 62.932436 -2.694662 -16.279164
Head -1.088436 6.116940 -4.567845
LeftShoulder 9.135196 -36.711930 0.974414
LeftArm 59.367704 49.329156 -39.562864
LeftForeArm 25.592393 -0.000000 19.223540
LeftHand -3.082641 -0.000000 0.667207
LeftHandThumb1 -26.253704 0.000000 33.147579
RightShoulder 5.307129 -15.081007 -9.287106
RightArm 10.391706 -1.184229 97.965377
RightForeArm -56.928151 -0.000000 52.583465
RightHand 2.903359 -0.000000 -66.279556
RightHandThumb1 -24.326973 -0.000000 -32.862282
LeftUpLeg -14.279306 -1.491802 51.951565
LeftLeg 36.945061 -0.000000 -0.000000
LeftFoot 15.094335 23.834520 3.262625
LeftToeBase 24.519538 -0.000000 -0.000000
RightUpLeg -63.465539 -35.610638 -37.286791
RightLeg 12.530613 -0.000000 -0.000000
RightFoot 38.128327 -25.924616 -11.597999
RightToeBase 26.678436 -0.000000 -0.000000
1378
root 19.168878 4.631471 -8.955369 -213.460225 -0.124537 -202.988541
Spine 62.563698 -2.860131 -16.417653
Head -1.439024 6.597065 -4.879275
LeftShoulder 8.746123 -36.099856 0.901889
LeftArm 59.039451 48.949220 -39.411206
LeftForeArm 26.264005 -0.000000 19.700643
LeftHand -3.229656 -0.000000 1.711721
LeftHandThumb1 -26.253704 0.000000 33.147579
RightShoulder 5.539935 -15.006866 -9.402718
RightArm 10.183762 -1.188854 97.942280
RightForeArm -57.231335 0.000000 53.193235
RightHand 1.879200 -0.000000 -64.743826
RightHandThumb1 -24.326973 -0.000000 -32.862282
LeftUpLeg -14.511612 -1.384167 51.838752
LeftLeg 37.164740 -0.000000 -0.000000
LeftFoot 14.938832 23.548039 3.355148
LeftToeBase 24.301380 -0.000000 -0.000000
RightUpLeg -63.820057 -35.994051 -36.073663
RightLeg 11.595908 -0.000000 -0.000000
RightFoot 40.194875 -25.224526 -14.275831
RightToeBase 25.455530 -0.000000 -0.000000
1379
root 19.135086 4.620341 -8.897942 -213.601159 -0.235240 -202.973437
Spine 62.160725 -3.048803 -16.560657
Head -1.684477 7.108403 -5.088919
LeftShoulder 8.348691 -35.317999 0.714857
LeftArm 58.783659 48.384644 -39.158710
LeftForeArm 26.661736 0.000000 20.139539
LeftHand -3.310371 -0.000000 2.692158
LeftHandThumb1 -26.253704 0.000000 33.147579
RightShoulder 5.861822 -14.911823 -9.512392
RightArm 9.857423 -0.987599 97.989618
RightForeArm -57.699575 -0.000000 53.857074
RightHand 1.030662 -0.000000 -62.955051
RightHandThumb1 -24.326973 -0.000000 -32.862282
LeftUpLeg -14.721885 -1.337225 51.754854
LeftLeg 37.345223 -0.000000 -0.000000
LeftFoot 14.751418 23.272768 3.419484
LeftToeBase 24.192326 -0.000000 -0.000000
RightUpLeg -63.739938 -36.175853 -35.668322
RightLeg 11.125836 -0.000000 -0.000000
RightFoot 40.072525 -25.130493 -14.555572
RightToeBase 25.344222 -0.000000 -0.000000
